<svg width="100%" height="100%" viewBox="0 0 21 21" fill="none" xmlns="http://www.w3.org/2000/svg">
<path d="M16.8757 20.3875H4.796C2.67572 20.3875 0.94928 18.6628 0.94928 16.5408V4.46287C0.94928 2.34079 2.67392 0.61615 4.796 0.61615H16.8757C18.996 0.61615 20.7224 2.34079 20.7224 4.46287V16.5426C20.7224 18.6628 18.9978 20.3893 16.8757 20.3893V20.3875ZM4.796 2.30662C3.60728 2.30662 2.63975 3.27415 2.63975 4.46287V16.5426C2.63975 17.7313 3.60728 18.6988 4.796 18.6988H16.8757C18.0644 18.6988 19.0319 17.7313 19.0319 16.5426V4.46287C19.0319 3.27415 18.0644 2.30662 16.8757 2.30662H4.796Z" fill="currentColor"/>
<path d="M9.24515 15.9562H7.45756C6.30121 15.9562 5.36066 15.0157 5.36066 13.8593V7.14421C5.36066 5.98785 6.30121 5.0473 7.45756 5.0473H9.24515C9.71093 5.0473 10.0904 5.42496 10.0904 5.89254C10.0904 6.36012 9.71272 6.73777 9.24515 6.73777H7.45756C7.23276 6.73777 7.05113 6.92121 7.05113 7.14601V13.8611C7.05113 14.0859 7.23276 14.2676 7.45756 14.2676H9.24515C9.71093 14.2676 10.0904 14.6452 10.0904 15.1128C10.0904 15.5804 9.71272 15.958 9.24515 15.958V15.9562Z" fill="currentColor"/>
<path d="M16.1149 11.036C16.1293 11.0198 16.1437 11.0036 16.1563 10.9856C16.1779 10.9533 16.1958 10.9191 16.2138 10.8849C16.221 10.8687 16.2318 10.8543 16.239 10.8382C16.257 10.7968 16.2696 10.7536 16.2804 10.7087C16.284 10.6979 16.2876 10.6871 16.2912 10.6763C16.3037 10.6206 16.3091 10.5612 16.3091 10.5019C16.3091 10.4425 16.302 10.3832 16.2912 10.3274C16.2894 10.3166 16.284 10.3058 16.2804 10.2951C16.2696 10.2501 16.257 10.2069 16.2372 10.1656C16.23 10.1494 16.221 10.135 16.212 10.1188C16.194 10.0846 16.1761 10.0505 16.1545 10.0181C16.1419 10.0001 16.1275 9.98573 16.1131 9.96955C16.0897 9.94257 16.0682 9.9156 16.043 9.89042C16.0376 9.88502 16.034 9.87963 16.0304 9.87603L13.3688 7.4734C13.0217 7.16049 12.4876 7.18746 12.1747 7.53455C11.8618 7.88163 11.8887 8.41575 12.2358 8.72867L13.2663 9.65843H9.43935C8.97357 9.65843 8.59412 10.0361 8.59412 10.5037C8.59412 10.9712 8.97178 11.3489 9.43935 11.3489H13.2663L12.2358 12.2787C11.8887 12.5916 11.8618 13.1257 12.1747 13.4728C12.3419 13.658 12.5721 13.7515 12.8023 13.7515C13.0037 13.7515 13.2069 13.6796 13.3688 13.5339L16.0304 11.1313C16.0304 11.1313 16.0394 11.1205 16.0448 11.1169C16.07 11.0935 16.0933 11.0666 16.1149 11.0378V11.036Z" fill="currentColor"/>
</svg>
